<svg width="720" height="630" viewBox="0 0 720 630" fill="none" xmlns="http://www.w3.org/2000/svg">
<path fill-rule="evenodd" clip-rule="evenodd" d="M0 0H360V315H0V0ZM0.5625 0.5625H44.4375V44.4375H0.5625V0.5625ZM45.5625 0.5625H89.4375V44.4375H45.5625V0.5625ZM134.438 0.5625H90.5625V44.4375H134.438V0.5625ZM135.562 0.5625H179.438V44.4375H135.562V0.5625ZM224.438 0.5625H180.562V44.4375H224.438V0.5625ZM225.562 0.5625H269.438V44.4375H225.562V0.5625ZM314.438 0.5625H270.562V44.4375H314.438V0.5625ZM315.562 0.5625H359.438V44.4375H315.562V0.5625ZM44.4375 45.5625H0.5625V89.4375H44.4375V45.5625ZM45.5625 45.5625H89.4375V89.4375H45.5625V45.5625ZM134.438 45.5625H90.5625V89.4375H134.438V45.5625ZM135.562 45.5625H179.438V89.4375H135.562V45.5625ZM224.438 45.5625H180.562V89.4375H224.438V45.5625ZM225.562 45.5625H269.438V89.4375H225.562V45.5625ZM314.438 45.5625H270.562V89.4375H314.438V45.5625ZM315.562 45.5625H359.438V89.4375H315.562V45.5625ZM44.4375 90.5625H0.5625V134.438H44.4375V90.5625ZM45.5625 90.5625H89.4375V134.438H45.5625V90.5625ZM134.438 90.5625H90.5625V134.438H134.438V90.5625ZM135.562 90.5625H179.438V134.438H135.562V90.5625ZM224.438 90.5625H180.562V134.438H224.438V90.5625ZM225.562 90.5625H269.438V134.438H225.562V90.5625ZM314.438 90.5625H270.562V134.438H314.438V90.5625ZM315.562 90.5625H359.438V134.438H315.562V90.5625ZM44.4375 135.562H0.5625V179.438H44.4375V135.562ZM45.5625 135.562H89.4375V179.438H45.5625V135.562ZM134.438 135.562H90.5625V179.438H134.438V135.562ZM135.562 135.562H179.438V179.438H135.562V135.562ZM224.438 135.562H180.562V179.438H224.438V135.562ZM225.562 135.562H269.438V179.438H225.562V135.562ZM314.438 135.562H270.562V179.438H314.438V135.562ZM315.562 135.562H359.438V179.438H315.562V135.562ZM44.4375 180.562H0.5625V224.438H44.4375V180.562ZM45.5625 180.562H89.4375V224.438H45.5625V180.562ZM134.438 180.562H90.5625V224.438H134.438V180.562ZM135.562 180.562H179.438V224.438H135.562V180.562ZM224.438 180.562H180.562V224.438H224.438V180.562ZM225.562 180.562H269.438V224.438H225.562V180.562ZM314.438 180.562H270.562V224.438H314.438V180.562ZM315.562 180.562H359.438V224.438H315.562V180.562ZM44.4375 225.562H0.5625V269.438H44.4375V225.562ZM45.5625 225.562H89.4375V269.438H45.5625V225.562ZM134.438 225.562H90.5625V269.438H134.438V225.562ZM135.562 225.562H179.438V269.438H135.562V225.562ZM224.438 225.562H180.562V269.438H224.438V225.562ZM225.562 225.562H269.438V269.438H225.562V225.562ZM314.438 225.562H270.562V269.438H314.438V225.562ZM315.562 225.562H359.438V269.438H315.562V225.562ZM44.4375 270.562H0.5625V314.438H44.4375V270.562ZM45.5625 270.562H89.4375V314.438H45.5625V270.562ZM134.438 270.562H90.5625V314.438H134.438V270.562ZM135.562 270.562H179.438V314.438H135.562V270.562ZM224.438 270.562H180.562V314.438H224.438V270.562ZM225.562 270.562H269.438V314.438H225.562V270.562ZM314.438 270.562H270.562V314.438H314.438V270.562ZM315.562 270.562H359.438V314.438H315.562V270.562Z" fill="url(#paint0_linear_530_6)"/>
<path fill-rule="evenodd" clip-rule="evenodd" d="M0 315H360V630H0V315ZM0.5625 315.562H44.4375V359.438H0.5625V315.562ZM45.5625 315.562H89.4375V359.438H45.5625V315.562ZM134.438 315.562H90.5625V359.438H134.438V315.562ZM135.562 315.562H179.438V359.438H135.562V315.562ZM224.438 315.562H180.562V359.438H224.438V315.562ZM225.562 315.562H269.438V359.438H225.562V315.562ZM314.438 315.562H270.562V359.438H314.438V315.562ZM315.562 315.562H359.438V359.438H315.562V315.562ZM44.4375 360.562H0.5625V404.438H44.4375V360.562ZM45.5625 360.562H89.4375V404.438H45.5625V360.562ZM134.438 360.562H90.5625V404.438H134.438V360.562ZM135.562 360.562H179.438V404.438H135.562V360.562ZM224.438 360.562H180.562V404.438H224.438V360.562ZM225.562 360.562H269.438V404.438H225.562V360.562ZM314.438 360.562H270.562V404.438H314.438V360.562ZM315.562 360.562H359.438V404.438H315.562V360.562ZM44.4375 405.562H0.5625V449.438H44.4375V405.562ZM45.5625 405.562H89.4375V449.438H45.5625V405.562ZM134.438 405.562H90.5625V449.438H134.438V405.562ZM135.562 405.562H179.438V449.438H135.562V405.562ZM224.438 405.562H180.562V449.438H224.438V405.562ZM225.562 405.562H269.438V449.438H225.562V405.562ZM314.438 405.562H270.562V449.438H314.438V405.562ZM315.562 405.562H359.438V449.438H315.562V405.562ZM44.4375 450.562H0.5625V494.438H44.4375V450.562ZM45.5625 450.562H89.4375V494.438H45.5625V450.562ZM134.438 450.562H90.5625V494.438H134.438V450.562ZM135.562 450.562H179.438V494.438H135.562V450.562ZM224.438 450.562H180.562V494.438H224.438V450.562ZM225.562 450.562H269.438V494.438H225.562V450.562ZM314.438 450.562H270.562V494.438H314.438V450.562ZM315.562 450.562H359.438V494.438H315.562V450.562ZM44.4375 495.562H0.5625V539.438H44.4375V495.562ZM45.5625 495.562H89.4375V539.438H45.5625V495.562ZM134.438 495.562H90.5625V539.438H134.438V495.562ZM135.562 495.562H179.438V539.438H135.562V495.562ZM224.438 495.562H180.562V539.438H224.438V495.562ZM225.562 495.562H269.438V539.438H225.562V495.562ZM314.438 495.562H270.562V539.438H314.438V495.562ZM315.562 495.562H359.438V539.438H315.562V495.562ZM44.4375 540.562H0.5625V584.438H44.4375V540.562ZM45.5625 540.562H89.4375V584.438H45.5625V540.562ZM134.438 540.562H90.5625V584.438H134.438V540.562ZM135.562 540.562H179.438V584.438H135.562V540.562ZM224.438 540.562H180.562V584.438H224.438V540.562ZM225.562 540.562H269.438V584.438H225.562V540.562ZM314.438 540.562H270.562V584.438H314.438V540.562ZM315.562 540.562H359.438V584.438H315.562V540.562ZM44.4375 585.562H0.5625V629.438H44.4375V585.562ZM45.5625 585.562H89.4375V629.438H45.5625V585.562ZM134.438 585.562H90.5625V629.438H134.438V585.562ZM135.562 585.562H179.438V629.438H135.562V585.562ZM224.438 585.562H180.562V629.438H224.438V585.562ZM225.562 585.562H269.438V629.438H225.562V585.562ZM314.438 585.562H270.562V629.438H314.438V585.562ZM315.562 585.562H359.438V629.438H315.562V585.562Z" fill="url(#paint1_linear_530_6)"/>
<path fill-rule="evenodd" clip-rule="evenodd" d="M360 0H720V315H360V0ZM360.562 0.5625H404.438V44.4375H360.562V0.5625ZM405.562 0.5625H449.438V44.4375H405.562V0.5625ZM494.438 0.5625H450.562V44.4375H494.438V0.5625ZM495.562 0.5625H539.438V44.4375H495.562V0.5625ZM584.438 0.5625H540.562V44.4375H584.438V0.5625ZM585.562 0.5625H629.438V44.4375H585.562V0.5625ZM674.438 0.5625H630.562V44.4375H674.438V0.5625ZM675.562 0.5625H719.438V44.4375H675.562V0.5625ZM404.438 45.5625H360.562V89.4375H404.438V45.5625ZM405.562 45.5625H449.438V89.4375H405.562V45.5625ZM494.438 45.5625H450.562V89.4375H494.438V45.5625ZM495.562 45.5625H539.438V89.4375H495.562V45.5625ZM584.438 45.5625H540.562V89.4375H584.438V45.5625ZM585.562 45.5625H629.438V89.4375H585.562V45.5625ZM674.438 45.5625H630.562V89.4375H674.438V45.5625ZM675.562 45.5625H719.438V89.4375H675.562V45.5625ZM404.438 90.5625H360.562V134.438H404.438V90.5625ZM405.562 90.5625H449.438V134.438H405.562V90.5625ZM494.438 90.5625H450.562V134.438H494.438V90.5625ZM495.562 90.5625H539.438V134.438H495.562V90.5625ZM584.438 90.5625H540.562V134.438H584.438V90.5625ZM585.562 90.5625H629.438V134.438H585.562V90.5625ZM674.438 90.5625H630.562V134.438H674.438V90.5625ZM675.562 90.5625H719.438V134.438H675.562V90.5625ZM404.438 135.562H360.562V179.438H404.438V135.562ZM405.562 135.562H449.438V179.438H405.562V135.562ZM494.438 135.562H450.562V179.438H494.438V135.562ZM495.562 135.562H539.438V179.438H495.562V135.562ZM584.438 135.562H540.562V179.438H584.438V135.562ZM585.562 135.562H629.438V179.438H585.562V135.562ZM674.438 135.562H630.562V179.438H674.438V135.562ZM675.562 135.562H719.438V179.438H675.562V135.562ZM404.438 180.562H360.562V224.438H404.438V180.562ZM405.562 180.562H449.438V224.438H405.562V180.562ZM494.438 180.562H450.562V224.438H494.438V180.562ZM495.562 180.562H539.438V224.438H495.562V180.562ZM584.438 180.562H540.562V224.438H584.438V180.562ZM585.562 180.562H629.438V224.438H585.562V180.562ZM674.438 180.562H630.562V224.438H674.438V180.562ZM675.562 180.562H719.438V224.438H675.562V180.562ZM404.438 225.562H360.562V269.438H404.438V225.562ZM405.562 225.562H449.438V269.438H405.562V225.562ZM494.438 225.562H450.562V269.438H494.438V225.562ZM495.562 225.562H539.438V269.438H495.562V225.562ZM584.438 225.562H540.562V269.438H584.438V225.562ZM585.562 225.562H629.438V269.438H585.562V225.562ZM674.438 225.562H630.562V269.438H674.438V225.562ZM675.562 225.562H719.438V269.438H675.562V225.562ZM404.438 270.562H360.562V314.438H404.438V270.562ZM405.562 270.562H449.438V314.438H405.562V270.562ZM494.438 270.562H450.562V314.438H494.438V270.562ZM495.562 270.562H539.438V314.438H495.562V270.562ZM584.438 270.562H540.562V314.438H584.438V270.562ZM585.562 270.562H629.438V314.438H585.562V270.562ZM674.438 270.562H630.562V314.438H674.438V270.562ZM675.562 270.562H719.438V314.438H675.562V270.562Z" fill="url(#paint2_linear_530_6)"/>
<path fill-rule="evenodd" clip-rule="evenodd" d="M360 315H720V630H360V315ZM360.562 315.562H404.438V359.438H360.562V315.562ZM405.562 315.562H449.438V359.438H405.562V315.562ZM494.438 315.562H450.562V359.438H494.438V315.562ZM495.562 315.562H539.438V359.438H495.562V315.562ZM584.438 315.562H540.562V359.438H584.438V315.562ZM585.562 315.562H629.438V359.438H585.562V315.562ZM674.438 315.562H630.562V359.438H674.438V315.562ZM675.562 315.562H719.438V359.438H675.562V315.562ZM404.438 360.562H360.562V404.438H404.438V360.562ZM405.562 360.562H449.438V404.438H405.562V360.562ZM494.438 360.562H450.562V404.438H494.438V360.562ZM495.562 360.562H539.438V404.438H495.562V360.562ZM584.438 360.562H540.562V404.438H584.438V360.562ZM585.562 360.562H629.438V404.438H585.562V360.562ZM674.438 360.562H630.562V404.438H674.438V360.562ZM675.562 360.562H719.438V404.438H675.562V360.562ZM404.438 405.562H360.562V449.438H404.438V405.562ZM405.562 405.562H449.438V449.438H405.562V405.562ZM494.438 405.562H450.562V449.438H494.438V405.562ZM495.562 405.562H539.438V449.438H495.562V405.562ZM584.438 405.562H540.562V449.438H584.438V405.562ZM585.562 405.562H629.438V449.438H585.562V405.562ZM674.438 405.562H630.562V449.438H674.438V405.562ZM675.562 405.562H719.438V449.438H675.562V405.562ZM404.438 450.562H360.562V494.438H404.438V450.562ZM405.562 450.562H449.438V494.438H405.562V450.562ZM494.438 450.562H450.562V494.438H494.438V450.562ZM495.562 450.562H539.438V494.438H495.562V450.562ZM584.438 450.562H540.562V494.438H584.438V450.562ZM585.562 450.562H629.438V494.438H585.562V450.562ZM674.438 450.562H630.562V494.438H674.438V450.562ZM675.562 450.562H719.438V494.438H675.562V450.562ZM404.438 495.562H360.562V539.438H404.438V495.562ZM405.562 495.562H449.438V539.438H405.562V495.562ZM494.438 495.562H450.562V539.438H494.438V495.562ZM495.562 495.562H539.438V539.438H495.562V495.562ZM584.438 495.562H540.562V539.438H584.438V495.562ZM585.562 495.562H629.438V539.438H585.562V495.562ZM674.438 495.562H630.562V539.438H674.438V495.562ZM675.562 495.562H719.438V539.438H675.562V495.562ZM404.438 540.562H360.562V584.438H404.438V540.562ZM405.562 540.562H449.438V584.438H405.562V540.562ZM494.438 540.562H450.562V584.438H494.438V540.562ZM495.562 540.562H539.438V584.438H495.562V540.562ZM584.438 540.562H540.562V584.438H584.438V540.562ZM585.562 540.562H629.438V584.438H585.562V540.562ZM674.438 540.562H630.562V584.438H674.438V540.562ZM675.562 540.562H719.438V584.438H675.562V540.562ZM404.438 585.562H360.562V629.438H404.438V585.562ZM405.562 585.562H449.438V629.438H405.562V585.562ZM494.438 585.562H450.562V629.438H494.438V585.562ZM495.562 585.562H539.438V629.438H495.562V585.562ZM584.438 585.562H540.562V629.438H584.438V585.562ZM585.562 585.562H629.438V629.438H585.562V585.562ZM674.438 585.562H630.562V629.438H674.438V585.562ZM675.562 585.562H719.438V629.438H675.562V585.562Z" fill="url(#paint3_linear_530_6)"/>
<defs>
<linearGradient id="paint0_linear_530_6" x1="360" y1="0" x2="360" y2="630" gradientUnits="userSpaceOnUse">
<stop offset="0.666667" stop-color="#F2F2F2"/>
<stop offset="1" stop-color="white" stop-opacity="0"/>
</linearGradient>
<linearGradient id="paint1_linear_530_6" x1="360" y1="0" x2="360" y2="630" gradientUnits="userSpaceOnUse">
<stop offset="0.666667" stop-color="#F2F2F2"/>
<stop offset="1" stop-color="white" stop-opacity="0"/>
</linearGradient>
<linearGradient id="paint2_linear_530_6" x1="360" y1="0" x2="360" y2="630" gradientUnits="userSpaceOnUse">
<stop offset="0.666667" stop-color="#F2F2F2"/>
<stop offset="1" stop-color="white" stop-opacity="0"/>
</linearGradient>
<linearGradient id="paint3_linear_530_6" x1="360" y1="0" x2="360" y2="630" gradientUnits="userSpaceOnUse">
<stop offset="0.666667" stop-color="#F2F2F2"/>
<stop offset="1" stop-color="white" stop-opacity="0"/>
</linearGradient>
</defs>
</svg>
