<svg width="152" height="167" viewBox="0 0 152 167" fill="none" xmlns="http://www.w3.org/2000/svg">
<path d="M4.90323 2.45588C4.90323 3.81223 3.8056 4.91176 2.45161 4.91176C1.09762 4.91176 0 3.81223 0 2.45588C0 1.09954 1.09762 0 2.45161 0C3.8056 0 4.90323 1.09954 4.90323 2.45588Z" fill="#CCCCCC"/>
<path d="M19.6129 2.45588C19.6129 3.81223 18.5153 4.91176 17.1613 4.91176C15.8073 4.91176 14.7097 3.81223 14.7097 2.45588C14.7097 1.09954 15.8073 0 17.1613 0C18.5153 0 19.6129 1.09954 19.6129 2.45588Z" fill="#CCCCCC"/>
<path d="M34.3226 2.45588C34.3226 3.81223 33.225 4.91176 31.871 4.91176C30.517 4.91176 29.4194 3.81223 29.4194 2.45588C29.4194 1.09954 30.517 0 31.871 0C33.225 0 34.3226 1.09954 34.3226 2.45588Z" fill="#CCCCCC"/>
<path d="M49.0323 2.45588C49.0323 3.81223 47.9346 4.91176 46.5806 4.91176C45.2267 4.91176 44.129 3.81223 44.129 2.45588C44.129 1.09954 45.2267 0 46.5806 0C47.9346 0 49.0323 1.09954 49.0323 2.45588Z" fill="#CCCCCC"/>
<path d="M63.7419 2.45588C63.7419 3.81223 62.6443 4.91176 61.2903 4.91176C59.9363 4.91176 58.8387 3.81223 58.8387 2.45588C58.8387 1.09954 59.9363 0 61.2903 0C62.6443 0 63.7419 1.09954 63.7419 2.45588Z" fill="#CCCCCC"/>
<path d="M78.4516 2.45588C78.4516 3.81223 77.354 4.91176 76 4.91176C74.646 4.91176 73.5484 3.81223 73.5484 2.45588C73.5484 1.09954 74.646 0 76 0C77.354 0 78.4516 1.09954 78.4516 2.45588Z" fill="#CCCCCC"/>
<path d="M93.1613 2.45588C93.1613 3.81223 92.0637 4.91176 90.7097 4.91176C89.3557 4.91176 88.2581 3.81223 88.2581 2.45588C88.2581 1.09954 89.3557 0 90.7097 0C92.0637 0 93.1613 1.09954 93.1613 2.45588Z" fill="#CCCCCC"/>
<path d="M107.871 2.45588C107.871 3.81223 106.773 4.91176 105.419 4.91176C104.065 4.91176 102.968 3.81223 102.968 2.45588C102.968 1.09954 104.065 0 105.419 0C106.773 0 107.871 1.09954 107.871 2.45588Z" fill="#CCCCCC"/>
<path d="M122.581 2.45588C122.581 3.81223 121.483 4.91176 120.129 4.91176C118.775 4.91176 117.677 3.81223 117.677 2.45588C117.677 1.09954 118.775 0 120.129 0C121.483 0 122.581 1.09954 122.581 2.45588Z" fill="#CCCCCC"/>
<path d="M137.29 2.45588C137.29 3.81223 136.193 4.91176 134.839 4.91176C133.485 4.91176 132.387 3.81223 132.387 2.45588C132.387 1.09954 133.485 0 134.839 0C136.193 0 137.29 1.09954 137.29 2.45588Z" fill="#CCCCCC"/>
<path d="M152 2.45588C152 3.81223 150.902 4.91176 149.548 4.91176C148.194 4.91176 147.097 3.81223 147.097 2.45588C147.097 1.09954 148.194 0 149.548 0C150.902 0 152 1.09954 152 2.45588Z" fill="#CCCCCC"/>
<path d="M4.90323 17.1912C4.90323 18.5475 3.8056 19.6471 2.45161 19.6471C1.09762 19.6471 0 18.5475 0 17.1912C0 15.8348 1.09762 14.7353 2.45161 14.7353C3.8056 14.7353 4.90323 15.8348 4.90323 17.1912Z" fill="#CCCCCC"/>
<path d="M19.6129 17.1912C19.6129 18.5475 18.5153 19.6471 17.1613 19.6471C15.8073 19.6471 14.7097 18.5475 14.7097 17.1912C14.7097 15.8348 15.8073 14.7353 17.1613 14.7353C18.5153 14.7353 19.6129 15.8348 19.6129 17.1912Z" fill="#CCCCCC"/>
<path d="M34.3226 17.1912C34.3226 18.5475 33.225 19.6471 31.871 19.6471C30.517 19.6471 29.4194 18.5475 29.4194 17.1912C29.4194 15.8348 30.517 14.7353 31.871 14.7353C33.225 14.7353 34.3226 15.8348 34.3226 17.1912Z" fill="#CCCCCC"/>
<path d="M49.0323 17.1912C49.0323 18.5475 47.9346 19.6471 46.5806 19.6471C45.2267 19.6471 44.129 18.5475 44.129 17.1912C44.129 15.8348 45.2267 14.7353 46.5806 14.7353C47.9346 14.7353 49.0323 15.8348 49.0323 17.1912Z" fill="#CCCCCC"/>
<path d="M63.7419 17.1912C63.7419 18.5475 62.6443 19.6471 61.2903 19.6471C59.9363 19.6471 58.8387 18.5475 58.8387 17.1912C58.8387 15.8348 59.9363 14.7353 61.2903 14.7353C62.6443 14.7353 63.7419 15.8348 63.7419 17.1912Z" fill="#CCCCCC"/>
<path d="M78.4516 17.1912C78.4516 18.5475 77.354 19.6471 76 19.6471C74.646 19.6471 73.5484 18.5475 73.5484 17.1912C73.5484 15.8348 74.646 14.7353 76 14.7353C77.354 14.7353 78.4516 15.8348 78.4516 17.1912Z" fill="#CCCCCC"/>
<path d="M93.1613 17.1912C93.1613 18.5475 92.0637 19.6471 90.7097 19.6471C89.3557 19.6471 88.2581 18.5475 88.2581 17.1912C88.2581 15.8348 89.3557 14.7353 90.7097 14.7353C92.0637 14.7353 93.1613 15.8348 93.1613 17.1912Z" fill="#CCCCCC"/>
<path d="M107.871 17.1912C107.871 18.5475 106.773 19.6471 105.419 19.6471C104.065 19.6471 102.968 18.5475 102.968 17.1912C102.968 15.8348 104.065 14.7353 105.419 14.7353C106.773 14.7353 107.871 15.8348 107.871 17.1912Z" fill="#CCCCCC"/>
<path d="M122.581 17.1912C122.581 18.5475 121.483 19.6471 120.129 19.6471C118.775 19.6471 117.677 18.5475 117.677 17.1912C117.677 15.8348 118.775 14.7353 120.129 14.7353C121.483 14.7353 122.581 15.8348 122.581 17.1912Z" fill="#CCCCCC"/>
<path d="M137.29 17.1912C137.29 18.5475 136.193 19.6471 134.839 19.6471C133.485 19.6471 132.387 18.5475 132.387 17.1912C132.387 15.8348 133.485 14.7353 134.839 14.7353C136.193 14.7353 137.29 15.8348 137.29 17.1912Z" fill="#CCCCCC"/>
<path d="M152 17.1912C152 18.5475 150.902 19.6471 149.548 19.6471C148.194 19.6471 147.097 18.5475 147.097 17.1912C147.097 15.8348 148.194 14.7353 149.548 14.7353C150.902 14.7353 152 15.8348 152 17.1912Z" fill="#CCCCCC"/>
<path d="M4.90323 31.9265C4.90323 33.2828 3.8056 34.3824 2.45161 34.3824C1.09762 34.3824 0 33.2828 0 31.9265C0 30.5701 1.09762 29.4706 2.45161 29.4706C3.8056 29.4706 4.90323 30.5701 4.90323 31.9265Z" fill="#CCCCCC"/>
<path d="M19.6129 31.9265C19.6129 33.2828 18.5153 34.3824 17.1613 34.3824C15.8073 34.3824 14.7097 33.2828 14.7097 31.9265C14.7097 30.5701 15.8073 29.4706 17.1613 29.4706C18.5153 29.4706 19.6129 30.5701 19.6129 31.9265Z" fill="#CCCCCC"/>
<path d="M34.3226 31.9265C34.3226 33.2828 33.225 34.3824 31.871 34.3824C30.517 34.3824 29.4194 33.2828 29.4194 31.9265C29.4194 30.5701 30.517 29.4706 31.871 29.4706C33.225 29.4706 34.3226 30.5701 34.3226 31.9265Z" fill="#CCCCCC"/>
<path d="M49.0323 31.9265C49.0323 33.2828 47.9346 34.3824 46.5806 34.3824C45.2267 34.3824 44.129 33.2828 44.129 31.9265C44.129 30.5701 45.2267 29.4706 46.5806 29.4706C47.9346 29.4706 49.0323 30.5701 49.0323 31.9265Z" fill="#CCCCCC"/>
<path d="M63.7419 31.9265C63.7419 33.2828 62.6443 34.3824 61.2903 34.3824C59.9363 34.3824 58.8387 33.2828 58.8387 31.9265C58.8387 30.5701 59.9363 29.4706 61.2903 29.4706C62.6443 29.4706 63.7419 30.5701 63.7419 31.9265Z" fill="#CCCCCC"/>
<path d="M78.4516 31.9265C78.4516 33.2828 77.354 34.3824 76 34.3824C74.646 34.3824 73.5484 33.2828 73.5484 31.9265C73.5484 30.5701 74.646 29.4706 76 29.4706C77.354 29.4706 78.4516 30.5701 78.4516 31.9265Z" fill="#CCCCCC"/>
<path d="M93.1613 31.9265C93.1613 33.2828 92.0637 34.3824 90.7097 34.3824C89.3557 34.3824 88.2581 33.2828 88.2581 31.9265C88.2581 30.5701 89.3557 29.4706 90.7097 29.4706C92.0637 29.4706 93.1613 30.5701 93.1613 31.9265Z" fill="#CCCCCC"/>
<path d="M107.871 31.9265C107.871 33.2828 106.773 34.3824 105.419 34.3824C104.065 34.3824 102.968 33.2828 102.968 31.9265C102.968 30.5701 104.065 29.4706 105.419 29.4706C106.773 29.4706 107.871 30.5701 107.871 31.9265Z" fill="#CCCCCC"/>
<path d="M122.581 31.9265C122.581 33.2828 121.483 34.3824 120.129 34.3824C118.775 34.3824 117.677 33.2828 117.677 31.9265C117.677 30.5701 118.775 29.4706 120.129 29.4706C121.483 29.4706 122.581 30.5701 122.581 31.9265Z" fill="#CCCCCC"/>
<path d="M137.29 31.9265C137.29 33.2828 136.193 34.3824 134.839 34.3824C133.485 34.3824 132.387 33.2828 132.387 31.9265C132.387 30.5701 133.485 29.4706 134.839 29.4706C136.193 29.4706 137.29 30.5701 137.29 31.9265Z" fill="#CCCCCC"/>
<path d="M152 31.9265C152 33.2828 150.902 34.3824 149.548 34.3824C148.194 34.3824 147.097 33.2828 147.097 31.9265C147.097 30.5701 148.194 29.4706 149.548 29.4706C150.902 29.4706 152 30.5701 152 31.9265Z" fill="#CCCCCC"/>
<path d="M4.90323 46.6618C4.90323 48.0181 3.8056 49.1176 2.45161 49.1176C1.09762 49.1176 0 48.0181 0 46.6618C0 45.3054 1.09762 44.2059 2.45161 44.2059C3.8056 44.2059 4.90323 45.3054 4.90323 46.6618Z" fill="#CCCCCC"/>
<path d="M19.6129 46.6618C19.6129 48.0181 18.5153 49.1176 17.1613 49.1176C15.8073 49.1176 14.7097 48.0181 14.7097 46.6618C14.7097 45.3054 15.8073 44.2059 17.1613 44.2059C18.5153 44.2059 19.6129 45.3054 19.6129 46.6618Z" fill="#CCCCCC"/>
<path d="M34.3226 46.6618C34.3226 48.0181 33.225 49.1176 31.871 49.1176C30.517 49.1176 29.4194 48.0181 29.4194 46.6618C29.4194 45.3054 30.517 44.2059 31.871 44.2059C33.225 44.2059 34.3226 45.3054 34.3226 46.6618Z" fill="#CCCCCC"/>
<path d="M49.0323 46.6618C49.0323 48.0181 47.9346 49.1176 46.5806 49.1176C45.2267 49.1176 44.129 48.0181 44.129 46.6618C44.129 45.3054 45.2267 44.2059 46.5806 44.2059C47.9346 44.2059 49.0323 45.3054 49.0323 46.6618Z" fill="#CCCCCC"/>
<path d="M63.7419 46.6618C63.7419 48.0181 62.6443 49.1176 61.2903 49.1176C59.9363 49.1176 58.8387 48.0181 58.8387 46.6618C58.8387 45.3054 59.9363 44.2059 61.2903 44.2059C62.6443 44.2059 63.7419 45.3054 63.7419 46.6618Z" fill="#CCCCCC"/>
<path d="M78.4516 46.6618C78.4516 48.0181 77.354 49.1176 76 49.1176C74.646 49.1176 73.5484 48.0181 73.5484 46.6618C73.5484 45.3054 74.646 44.2059 76 44.2059C77.354 44.2059 78.4516 45.3054 78.4516 46.6618Z" fill="#CCCCCC"/>
<path d="M93.1613 46.6618C93.1613 48.0181 92.0637 49.1176 90.7097 49.1176C89.3557 49.1176 88.2581 48.0181 88.2581 46.6618C88.2581 45.3054 89.3557 44.2059 90.7097 44.2059C92.0637 44.2059 93.1613 45.3054 93.1613 46.6618Z" fill="#CCCCCC"/>
<path d="M107.871 46.6618C107.871 48.0181 106.773 49.1176 105.419 49.1176C104.065 49.1176 102.968 48.0181 102.968 46.6618C102.968 45.3054 104.065 44.2059 105.419 44.2059C106.773 44.2059 107.871 45.3054 107.871 46.6618Z" fill="#CCCCCC"/>
<path d="M122.581 46.6618C122.581 48.0181 121.483 49.1176 120.129 49.1176C118.775 49.1176 117.677 48.0181 117.677 46.6618C117.677 45.3054 118.775 44.2059 120.129 44.2059C121.483 44.2059 122.581 45.3054 122.581 46.6618Z" fill="#CCCCCC"/>
<path d="M137.29 46.6618C137.29 48.0181 136.193 49.1176 134.839 49.1176C133.485 49.1176 132.387 48.0181 132.387 46.6618C132.387 45.3054 133.485 44.2059 134.839 44.2059C136.193 44.2059 137.29 45.3054 137.29 46.6618Z" fill="#CCCCCC"/>
<path d="M152 46.6618C152 48.0181 150.902 49.1176 149.548 49.1176C148.194 49.1176 147.097 48.0181 147.097 46.6618C147.097 45.3054 148.194 44.2059 149.548 44.2059C150.902 44.2059 152 45.3054 152 46.6618Z" fill="#CCCCCC"/>
<path d="M4.90323 61.3971C4.90323 62.7534 3.8056 63.8529 2.45161 63.8529C1.09762 63.8529 0 62.7534 0 61.3971C0 60.0407 1.09762 58.9412 2.45161 58.9412C3.8056 58.9412 4.90323 60.0407 4.90323 61.3971Z" fill="#CCCCCC"/>
<path d="M19.6129 61.3971C19.6129 62.7534 18.5153 63.8529 17.1613 63.8529C15.8073 63.8529 14.7097 62.7534 14.7097 61.3971C14.7097 60.0407 15.8073 58.9412 17.1613 58.9412C18.5153 58.9412 19.6129 60.0407 19.6129 61.3971Z" fill="#CCCCCC"/>
<path d="M34.3226 61.3971C34.3226 62.7534 33.225 63.8529 31.871 63.8529C30.517 63.8529 29.4194 62.7534 29.4194 61.3971C29.4194 60.0407 30.517 58.9412 31.871 58.9412C33.225 58.9412 34.3226 60.0407 34.3226 61.3971Z" fill="#CCCCCC"/>
<path d="M49.0323 61.3971C49.0323 62.7534 47.9346 63.8529 46.5806 63.8529C45.2267 63.8529 44.129 62.7534 44.129 61.3971C44.129 60.0407 45.2267 58.9412 46.5806 58.9412C47.9346 58.9412 49.0323 60.0407 49.0323 61.3971Z" fill="#CCCCCC"/>
<path d="M63.7419 61.3971C63.7419 62.7534 62.6443 63.8529 61.2903 63.8529C59.9363 63.8529 58.8387 62.7534 58.8387 61.3971C58.8387 60.0407 59.9363 58.9412 61.2903 58.9412C62.6443 58.9412 63.7419 60.0407 63.7419 61.3971Z" fill="#CCCCCC"/>
<path d="M78.4516 61.3971C78.4516 62.7534 77.354 63.8529 76 63.8529C74.646 63.8529 73.5484 62.7534 73.5484 61.3971C73.5484 60.0407 74.646 58.9412 76 58.9412C77.354 58.9412 78.4516 60.0407 78.4516 61.3971Z" fill="#CCCCCC"/>
<path d="M93.1613 61.3971C93.1613 62.7534 92.0637 63.8529 90.7097 63.8529C89.3557 63.8529 88.2581 62.7534 88.2581 61.3971C88.2581 60.0407 89.3557 58.9412 90.7097 58.9412C92.0637 58.9412 93.1613 60.0407 93.1613 61.3971Z" fill="#CCCCCC"/>
<path d="M107.871 61.3971C107.871 62.7534 106.773 63.8529 105.419 63.8529C104.065 63.8529 102.968 62.7534 102.968 61.3971C102.968 60.0407 104.065 58.9412 105.419 58.9412C106.773 58.9412 107.871 60.0407 107.871 61.3971Z" fill="#CCCCCC"/>
<path d="M122.581 61.3971C122.581 62.7534 121.483 63.8529 120.129 63.8529C118.775 63.8529 117.677 62.7534 117.677 61.3971C117.677 60.0407 118.775 58.9412 120.129 58.9412C121.483 58.9412 122.581 60.0407 122.581 61.3971Z" fill="#CCCCCC"/>
<path d="M137.29 61.3971C137.29 62.7534 136.193 63.8529 134.839 63.8529C133.485 63.8529 132.387 62.7534 132.387 61.3971C132.387 60.0407 133.485 58.9412 134.839 58.9412C136.193 58.9412 137.29 60.0407 137.29 61.3971Z" fill="#CCCCCC"/>
<path d="M152 61.3971C152 62.7534 150.902 63.8529 149.548 63.8529C148.194 63.8529 147.097 62.7534 147.097 61.3971C147.097 60.0407 148.194 58.9412 149.548 58.9412C150.902 58.9412 152 60.0407 152 61.3971Z" fill="#CCCCCC"/>
<path d="M4.90323 76.1324C4.90323 77.4887 3.8056 78.5882 2.45161 78.5882C1.09762 78.5882 0 77.4887 0 76.1324C0 74.776 1.09762 73.6765 2.45161 73.6765C3.8056 73.6765 4.90323 74.776 4.90323 76.1324Z" fill="#CCCCCC"/>
<path d="M19.6129 76.1324C19.6129 77.4887 18.5153 78.5882 17.1613 78.5882C15.8073 78.5882 14.7097 77.4887 14.7097 76.1324C14.7097 74.776 15.8073 73.6765 17.1613 73.6765C18.5153 73.6765 19.6129 74.776 19.6129 76.1324Z" fill="#CCCCCC"/>
<path d="M34.3226 76.1324C34.3226 77.4887 33.225 78.5882 31.871 78.5882C30.517 78.5882 29.4194 77.4887 29.4194 76.1324C29.4194 74.776 30.517 73.6765 31.871 73.6765C33.225 73.6765 34.3226 74.776 34.3226 76.1324Z" fill="#CCCCCC"/>
<path d="M49.0323 76.1324C49.0323 77.4887 47.9346 78.5882 46.5806 78.5882C45.2267 78.5882 44.129 77.4887 44.129 76.1324C44.129 74.776 45.2267 73.6765 46.5806 73.6765C47.9346 73.6765 49.0323 74.776 49.0323 76.1324Z" fill="#CCCCCC"/>
<path d="M63.7419 76.1324C63.7419 77.4887 62.6443 78.5882 61.2903 78.5882C59.9363 78.5882 58.8387 77.4887 58.8387 76.1324C58.8387 74.776 59.9363 73.6765 61.2903 73.6765C62.6443 73.6765 63.7419 74.776 63.7419 76.1324Z" fill="#CCCCCC"/>
<path d="M78.4516 76.1324C78.4516 77.4887 77.354 78.5882 76 78.5882C74.646 78.5882 73.5484 77.4887 73.5484 76.1324C73.5484 74.776 74.646 73.6765 76 73.6765C77.354 73.6765 78.4516 74.776 78.4516 76.1324Z" fill="#CCCCCC"/>
<path d="M93.1613 76.1324C93.1613 77.4887 92.0637 78.5882 90.7097 78.5882C89.3557 78.5882 88.2581 77.4887 88.2581 76.1324C88.2581 74.776 89.3557 73.6765 90.7097 73.6765C92.0637 73.6765 93.1613 74.776 93.1613 76.1324Z" fill="#CCCCCC"/>
<path d="M107.871 76.1324C107.871 77.4887 106.773 78.5882 105.419 78.5882C104.065 78.5882 102.968 77.4887 102.968 76.1324C102.968 74.776 104.065 73.6765 105.419 73.6765C106.773 73.6765 107.871 74.776 107.871 76.1324Z" fill="#CCCCCC"/>
<path d="M122.581 76.1324C122.581 77.4887 121.483 78.5882 120.129 78.5882C118.775 78.5882 117.677 77.4887 117.677 76.1324C117.677 74.776 118.775 73.6765 120.129 73.6765C121.483 73.6765 122.581 74.776 122.581 76.1324Z" fill="#CCCCCC"/>
<path d="M137.29 76.1324C137.29 77.4887 136.193 78.5882 134.839 78.5882C133.485 78.5882 132.387 77.4887 132.387 76.1324C132.387 74.776 133.485 73.6765 134.839 73.6765C136.193 73.6765 137.29 74.776 137.29 76.1324Z" fill="#CCCCCC"/>
<path d="M152 76.1324C152 77.4887 150.902 78.5882 149.548 78.5882C148.194 78.5882 147.097 77.4887 147.097 76.1324C147.097 74.776 148.194 73.6765 149.548 73.6765C150.902 73.6765 152 74.776 152 76.1324Z" fill="#CCCCCC"/>
<path d="M4.90323 90.8676C4.90323 92.224 3.8056 93.3235 2.45161 93.3235C1.09762 93.3235 0 92.224 0 90.8676C0 89.5113 1.09762 88.4118 2.45161 88.4118C3.8056 88.4118 4.90323 89.5113 4.90323 90.8676Z" fill="#CCCCCC"/>
<path d="M19.6129 90.8676C19.6129 92.224 18.5153 93.3235 17.1613 93.3235C15.8073 93.3235 14.7097 92.224 14.7097 90.8676C14.7097 89.5113 15.8073 88.4118 17.1613 88.4118C18.5153 88.4118 19.6129 89.5113 19.6129 90.8676Z" fill="#CCCCCC"/>
<path d="M34.3226 90.8676C34.3226 92.224 33.225 93.3235 31.871 93.3235C30.517 93.3235 29.4194 92.224 29.4194 90.8676C29.4194 89.5113 30.517 88.4118 31.871 88.4118C33.225 88.4118 34.3226 89.5113 34.3226 90.8676Z" fill="#CCCCCC"/>
<path d="M49.0323 90.8676C49.0323 92.224 47.9346 93.3235 46.5806 93.3235C45.2267 93.3235 44.129 92.224 44.129 90.8676C44.129 89.5113 45.2267 88.4118 46.5806 88.4118C47.9346 88.4118 49.0323 89.5113 49.0323 90.8676Z" fill="#CCCCCC"/>
<path d="M63.7419 90.8676C63.7419 92.224 62.6443 93.3235 61.2903 93.3235C59.9363 93.3235 58.8387 92.224 58.8387 90.8676C58.8387 89.5113 59.9363 88.4118 61.2903 88.4118C62.6443 88.4118 63.7419 89.5113 63.7419 90.8676Z" fill="#CCCCCC"/>
<path d="M78.4516 90.8676C78.4516 92.224 77.354 93.3235 76 93.3235C74.646 93.3235 73.5484 92.224 73.5484 90.8676C73.5484 89.5113 74.646 88.4118 76 88.4118C77.354 88.4118 78.4516 89.5113 78.4516 90.8676Z" fill="#CCCCCC"/>
<path d="M93.1613 90.8676C93.1613 92.224 92.0637 93.3235 90.7097 93.3235C89.3557 93.3235 88.2581 92.224 88.2581 90.8676C88.2581 89.5113 89.3557 88.4118 90.7097 88.4118C92.0637 88.4118 93.1613 89.5113 93.1613 90.8676Z" fill="#CCCCCC"/>
<path d="M107.871 90.8676C107.871 92.224 106.773 93.3235 105.419 93.3235C104.065 93.3235 102.968 92.224 102.968 90.8676C102.968 89.5113 104.065 88.4118 105.419 88.4118C106.773 88.4118 107.871 89.5113 107.871 90.8676Z" fill="#CCCCCC"/>
<path d="M122.581 90.8676C122.581 92.224 121.483 93.3235 120.129 93.3235C118.775 93.3235 117.677 92.224 117.677 90.8676C117.677 89.5113 118.775 88.4118 120.129 88.4118C121.483 88.4118 122.581 89.5113 122.581 90.8676Z" fill="#CCCCCC"/>
<path d="M137.29 90.8676C137.29 92.224 136.193 93.3235 134.839 93.3235C133.485 93.3235 132.387 92.224 132.387 90.8676C132.387 89.5113 133.485 88.4118 134.839 88.4118C136.193 88.4118 137.29 89.5113 137.29 90.8676Z" fill="#CCCCCC"/>
<path d="M152 90.8676C152 92.224 150.902 93.3235 149.548 93.3235C148.194 93.3235 147.097 92.224 147.097 90.8676C147.097 89.5113 148.194 88.4118 149.548 88.4118C150.902 88.4118 152 89.5113 152 90.8676Z" fill="#CCCCCC"/>
<path d="M4.90323 105.603C4.90323 106.959 3.8056 108.059 2.45161 108.059C1.09762 108.059 0 106.959 0 105.603C0 104.247 1.09762 103.147 2.45161 103.147C3.8056 103.147 4.90323 104.247 4.90323 105.603Z" fill="#CCCCCC"/>
<path d="M19.6129 105.603C19.6129 106.959 18.5153 108.059 17.1613 108.059C15.8073 108.059 14.7097 106.959 14.7097 105.603C14.7097 104.247 15.8073 103.147 17.1613 103.147C18.5153 103.147 19.6129 104.247 19.6129 105.603Z" fill="#CCCCCC"/>
<path d="M34.3226 105.603C34.3226 106.959 33.225 108.059 31.871 108.059C30.517 108.059 29.4194 106.959 29.4194 105.603C29.4194 104.247 30.517 103.147 31.871 103.147C33.225 103.147 34.3226 104.247 34.3226 105.603Z" fill="#CCCCCC"/>
<path d="M49.0323 105.603C49.0323 106.959 47.9346 108.059 46.5806 108.059C45.2267 108.059 44.129 106.959 44.129 105.603C44.129 104.247 45.2267 103.147 46.5806 103.147C47.9346 103.147 49.0323 104.247 49.0323 105.603Z" fill="#CCCCCC"/>
<path d="M63.7419 105.603C63.7419 106.959 62.6443 108.059 61.2903 108.059C59.9363 108.059 58.8387 106.959 58.8387 105.603C58.8387 104.247 59.9363 103.147 61.2903 103.147C62.6443 103.147 63.7419 104.247 63.7419 105.603Z" fill="#CCCCCC"/>
<path d="M78.4516 105.603C78.4516 106.959 77.354 108.059 76 108.059C74.646 108.059 73.5484 106.959 73.5484 105.603C73.5484 104.247 74.646 103.147 76 103.147C77.354 103.147 78.4516 104.247 78.4516 105.603Z" fill="#CCCCCC"/>
<path d="M93.1613 105.603C93.1613 106.959 92.0637 108.059 90.7097 108.059C89.3557 108.059 88.2581 106.959 88.2581 105.603C88.2581 104.247 89.3557 103.147 90.7097 103.147C92.0637 103.147 93.1613 104.247 93.1613 105.603Z" fill="#CCCCCC"/>
<path d="M107.871 105.603C107.871 106.959 106.773 108.059 105.419 108.059C104.065 108.059 102.968 106.959 102.968 105.603C102.968 104.247 104.065 103.147 105.419 103.147C106.773 103.147 107.871 104.247 107.871 105.603Z" fill="#CCCCCC"/>
<path d="M122.581 105.603C122.581 106.959 121.483 108.059 120.129 108.059C118.775 108.059 117.677 106.959 117.677 105.603C117.677 104.247 118.775 103.147 120.129 103.147C121.483 103.147 122.581 104.247 122.581 105.603Z" fill="#CCCCCC"/>
<path d="M137.29 105.603C137.29 106.959 136.193 108.059 134.839 108.059C133.485 108.059 132.387 106.959 132.387 105.603C132.387 104.247 133.485 103.147 134.839 103.147C136.193 103.147 137.29 104.247 137.29 105.603Z" fill="#CCCCCC"/>
<path d="M152 105.603C152 106.959 150.902 108.059 149.548 108.059C148.194 108.059 147.097 106.959 147.097 105.603C147.097 104.247 148.194 103.147 149.548 103.147C150.902 103.147 152 104.247 152 105.603Z" fill="#CCCCCC"/>
<path d="M4.90323 120.338C4.90323 121.695 3.8056 122.794 2.45161 122.794C1.09762 122.794 0 121.695 0 120.338C0 118.982 1.09762 117.882 2.45161 117.882C3.8056 117.882 4.90323 118.982 4.90323 120.338Z" fill="#CCCCCC"/>
<path d="M19.6129 120.338C19.6129 121.695 18.5153 122.794 17.1613 122.794C15.8073 122.794 14.7097 121.695 14.7097 120.338C14.7097 118.982 15.8073 117.882 17.1613 117.882C18.5153 117.882 19.6129 118.982 19.6129 120.338Z" fill="#CCCCCC"/>
<path d="M34.3226 120.338C34.3226 121.695 33.225 122.794 31.871 122.794C30.517 122.794 29.4194 121.695 29.4194 120.338C29.4194 118.982 30.517 117.882 31.871 117.882C33.225 117.882 34.3226 118.982 34.3226 120.338Z" fill="#CCCCCC"/>
<path d="M49.0323 120.338C49.0323 121.695 47.9346 122.794 46.5806 122.794C45.2267 122.794 44.129 121.695 44.129 120.338C44.129 118.982 45.2267 117.882 46.5806 117.882C47.9346 117.882 49.0323 118.982 49.0323 120.338Z" fill="#CCCCCC"/>
<path d="M63.7419 120.338C63.7419 121.695 62.6443 122.794 61.2903 122.794C59.9363 122.794 58.8387 121.695 58.8387 120.338C58.8387 118.982 59.9363 117.882 61.2903 117.882C62.6443 117.882 63.7419 118.982 63.7419 120.338Z" fill="#CCCCCC"/>
<path d="M78.4516 120.338C78.4516 121.695 77.354 122.794 76 122.794C74.646 122.794 73.5484 121.695 73.5484 120.338C73.5484 118.982 74.646 117.882 76 117.882C77.354 117.882 78.4516 118.982 78.4516 120.338Z" fill="#CCCCCC"/>
<path d="M93.1613 120.338C93.1613 121.695 92.0637 122.794 90.7097 122.794C89.3557 122.794 88.2581 121.695 88.2581 120.338C88.2581 118.982 89.3557 117.882 90.7097 117.882C92.0637 117.882 93.1613 118.982 93.1613 120.338Z" fill="#CCCCCC"/>
<path d="M107.871 120.338C107.871 121.695 106.773 122.794 105.419 122.794C104.065 122.794 102.968 121.695 102.968 120.338C102.968 118.982 104.065 117.882 105.419 117.882C106.773 117.882 107.871 118.982 107.871 120.338Z" fill="#CCCCCC"/>
<path d="M122.581 120.338C122.581 121.695 121.483 122.794 120.129 122.794C118.775 122.794 117.677 121.695 117.677 120.338C117.677 118.982 118.775 117.882 120.129 117.882C121.483 117.882 122.581 118.982 122.581 120.338Z" fill="#CCCCCC"/>
<path d="M137.29 120.338C137.29 121.695 136.193 122.794 134.839 122.794C133.485 122.794 132.387 121.695 132.387 120.338C132.387 118.982 133.485 117.882 134.839 117.882C136.193 117.882 137.29 118.982 137.29 120.338Z" fill="#CCCCCC"/>
<path d="M152 120.338C152 121.695 150.902 122.794 149.548 122.794C148.194 122.794 147.097 121.695 147.097 120.338C147.097 118.982 148.194 117.882 149.548 117.882C150.902 117.882 152 118.982 152 120.338Z" fill="#CCCCCC"/>
<path d="M4.90323 135.074C4.90323 136.43 3.8056 137.529 2.45161 137.529C1.09762 137.529 0 136.43 0 135.074C0 133.717 1.09762 132.618 2.45161 132.618C3.8056 132.618 4.90323 133.717 4.90323 135.074Z" fill="#CCCCCC"/>
<path d="M19.6129 135.074C19.6129 136.43 18.5153 137.529 17.1613 137.529C15.8073 137.529 14.7097 136.43 14.7097 135.074C14.7097 133.717 15.8073 132.618 17.1613 132.618C18.5153 132.618 19.6129 133.717 19.6129 135.074Z" fill="#CCCCCC"/>
<path d="M34.3226 135.074C34.3226 136.43 33.225 137.529 31.871 137.529C30.517 137.529 29.4194 136.43 29.4194 135.074C29.4194 133.717 30.517 132.618 31.871 132.618C33.225 132.618 34.3226 133.717 34.3226 135.074Z" fill="#CCCCCC"/>
<path d="M49.0323 135.074C49.0323 136.43 47.9346 137.529 46.5806 137.529C45.2267 137.529 44.129 136.43 44.129 135.074C44.129 133.717 45.2267 132.618 46.5806 132.618C47.9346 132.618 49.0323 133.717 49.0323 135.074Z" fill="#CCCCCC"/>
<path d="M63.7419 135.074C63.7419 136.43 62.6443 137.529 61.2903 137.529C59.9363 137.529 58.8387 136.43 58.8387 135.074C58.8387 133.717 59.9363 132.618 61.2903 132.618C62.6443 132.618 63.7419 133.717 63.7419 135.074Z" fill="#CCCCCC"/>
<path d="M78.4516 135.074C78.4516 136.43 77.354 137.529 76 137.529C74.646 137.529 73.5484 136.43 73.5484 135.074C73.5484 133.717 74.646 132.618 76 132.618C77.354 132.618 78.4516 133.717 78.4516 135.074Z" fill="#CCCCCC"/>
<path d="M93.1613 135.074C93.1613 136.43 92.0637 137.529 90.7097 137.529C89.3557 137.529 88.2581 136.43 88.2581 135.074C88.2581 133.717 89.3557 132.618 90.7097 132.618C92.0637 132.618 93.1613 133.717 93.1613 135.074Z" fill="#CCCCCC"/>
<path d="M107.871 135.074C107.871 136.43 106.773 137.529 105.419 137.529C104.065 137.529 102.968 136.43 102.968 135.074C102.968 133.717 104.065 132.618 105.419 132.618C106.773 132.618 107.871 133.717 107.871 135.074Z" fill="#CCCCCC"/>
<path d="M122.581 135.074C122.581 136.43 121.483 137.529 120.129 137.529C118.775 137.529 117.677 136.43 117.677 135.074C117.677 133.717 118.775 132.618 120.129 132.618C121.483 132.618 122.581 133.717 122.581 135.074Z" fill="#CCCCCC"/>
<path d="M137.29 135.074C137.29 136.43 136.193 137.529 134.839 137.529C133.485 137.529 132.387 136.43 132.387 135.074C132.387 133.717 133.485 132.618 134.839 132.618C136.193 132.618 137.29 133.717 137.29 135.074Z" fill="#CCCCCC"/>
<path d="M152 135.074C152 136.43 150.902 137.529 149.548 137.529C148.194 137.529 147.097 136.43 147.097 135.074C147.097 133.717 148.194 132.618 149.548 132.618C150.902 132.618 152 133.717 152 135.074Z" fill="#CCCCCC"/>
<path d="M4.90323 149.809C4.90323 151.165 3.8056 152.265 2.45161 152.265C1.09762 152.265 0 151.165 0 149.809C0 148.452 1.09762 147.353 2.45161 147.353C3.8056 147.353 4.90323 148.452 4.90323 149.809Z" fill="#CCCCCC"/>
<path d="M19.6129 149.809C19.6129 151.165 18.5153 152.265 17.1613 152.265C15.8073 152.265 14.7097 151.165 14.7097 149.809C14.7097 148.452 15.8073 147.353 17.1613 147.353C18.5153 147.353 19.6129 148.452 19.6129 149.809Z" fill="#CCCCCC"/>
<path d="M34.3226 149.809C34.3226 151.165 33.225 152.265 31.871 152.265C30.517 152.265 29.4194 151.165 29.4194 149.809C29.4194 148.452 30.517 147.353 31.871 147.353C33.225 147.353 34.3226 148.452 34.3226 149.809Z" fill="#CCCCCC"/>
<path d="M49.0323 149.809C49.0323 151.165 47.9346 152.265 46.5806 152.265C45.2267 152.265 44.129 151.165 44.129 149.809C44.129 148.452 45.2267 147.353 46.5806 147.353C47.9346 147.353 49.0323 148.452 49.0323 149.809Z" fill="#CCCCCC"/>
<path d="M63.7419 149.809C63.7419 151.165 62.6443 152.265 61.2903 152.265C59.9363 152.265 58.8387 151.165 58.8387 149.809C58.8387 148.452 59.9363 147.353 61.2903 147.353C62.6443 147.353 63.7419 148.452 63.7419 149.809Z" fill="#CCCCCC"/>
<path d="M78.4516 149.809C78.4516 151.165 77.354 152.265 76 152.265C74.646 152.265 73.5484 151.165 73.5484 149.809C73.5484 148.452 74.646 147.353 76 147.353C77.354 147.353 78.4516 148.452 78.4516 149.809Z" fill="#CCCCCC"/>
<path d="M93.1613 149.809C93.1613 151.165 92.0637 152.265 90.7097 152.265C89.3557 152.265 88.2581 151.165 88.2581 149.809C88.2581 148.452 89.3557 147.353 90.7097 147.353C92.0637 147.353 93.1613 148.452 93.1613 149.809Z" fill="#CCCCCC"/>
<path d="M107.871 149.809C107.871 151.165 106.773 152.265 105.419 152.265C104.065 152.265 102.968 151.165 102.968 149.809C102.968 148.452 104.065 147.353 105.419 147.353C106.773 147.353 107.871 148.452 107.871 149.809Z" fill="#CCCCCC"/>
<path d="M122.581 149.809C122.581 151.165 121.483 152.265 120.129 152.265C118.775 152.265 117.677 151.165 117.677 149.809C117.677 148.452 118.775 147.353 120.129 147.353C121.483 147.353 122.581 148.452 122.581 149.809Z" fill="#CCCCCC"/>
<path d="M137.29 149.809C137.29 151.165 136.193 152.265 134.839 152.265C133.485 152.265 132.387 151.165 132.387 149.809C132.387 148.452 133.485 147.353 134.839 147.353C136.193 147.353 137.29 148.452 137.29 149.809Z" fill="#CCCCCC"/>
<path d="M152 149.809C152 151.165 150.902 152.265 149.548 152.265C148.194 152.265 147.097 151.165 147.097 149.809C147.097 148.452 148.194 147.353 149.548 147.353C150.902 147.353 152 148.452 152 149.809Z" fill="#CCCCCC"/>
<path d="M4.90323 164.544C4.90323 165.9 3.8056 167 2.45161 167C1.09762 167 0 165.9 0 164.544C0 163.188 1.09762 162.088 2.45161 162.088C3.8056 162.088 4.90323 163.188 4.90323 164.544Z" fill="#CCCCCC"/>
<path d="M19.6129 164.544C19.6129 165.9 18.5153 167 17.1613 167C15.8073 167 14.7097 165.9 14.7097 164.544C14.7097 163.188 15.8073 162.088 17.1613 162.088C18.5153 162.088 19.6129 163.188 19.6129 164.544Z" fill="#CCCCCC"/>
<path d="M34.3226 164.544C34.3226 165.9 33.225 167 31.871 167C30.517 167 29.4194 165.9 29.4194 164.544C29.4194 163.188 30.517 162.088 31.871 162.088C33.225 162.088 34.3226 163.188 34.3226 164.544Z" fill="#CCCCCC"/>
<path d="M49.0323 164.544C49.0323 165.9 47.9346 167 46.5806 167C45.2267 167 44.129 165.9 44.129 164.544C44.129 163.188 45.2267 162.088 46.5806 162.088C47.9346 162.088 49.0323 163.188 49.0323 164.544Z" fill="#CCCCCC"/>
<path d="M63.7419 164.544C63.7419 165.9 62.6443 167 61.2903 167C59.9363 167 58.8387 165.9 58.8387 164.544C58.8387 163.188 59.9363 162.088 61.2903 162.088C62.6443 162.088 63.7419 163.188 63.7419 164.544Z" fill="#CCCCCC"/>
<path d="M78.4516 164.544C78.4516 165.9 77.354 167 76 167C74.646 167 73.5484 165.9 73.5484 164.544C73.5484 163.188 74.646 162.088 76 162.088C77.354 162.088 78.4516 163.188 78.4516 164.544Z" fill="#CCCCCC"/>
<path d="M93.1613 164.544C93.1613 165.9 92.0637 167 90.7097 167C89.3557 167 88.2581 165.9 88.2581 164.544C88.2581 163.188 89.3557 162.088 90.7097 162.088C92.0637 162.088 93.1613 163.188 93.1613 164.544Z" fill="#CCCCCC"/>
<path d="M107.871 164.544C107.871 165.9 106.773 167 105.419 167C104.065 167 102.968 165.9 102.968 164.544C102.968 163.188 104.065 162.088 105.419 162.088C106.773 162.088 107.871 163.188 107.871 164.544Z" fill="#CCCCCC"/>
<path d="M122.581 164.544C122.581 165.9 121.483 167 120.129 167C118.775 167 117.677 165.9 117.677 164.544C117.677 163.188 118.775 162.088 120.129 162.088C121.483 162.088 122.581 163.188 122.581 164.544Z" fill="#CCCCCC"/>
<path d="M137.29 164.544C137.29 165.9 136.193 167 134.839 167C133.485 167 132.387 165.9 132.387 164.544C132.387 163.188 133.485 162.088 134.839 162.088C136.193 162.088 137.29 163.188 137.29 164.544Z" fill="#CCCCCC"/>
<path d="M152 164.544C152 165.9 150.902 167 149.548 167C148.194 167 147.097 165.9 147.097 164.544C147.097 163.188 148.194 162.088 149.548 162.088C150.902 162.088 152 163.188 152 164.544Z" fill="#CCCCCC"/>
</svg>
