<svg width="40" height="40" viewBox="0 0 40 40" fill="none" xmlns="http://www.w3.org/2000/svg">
<circle cx="20" cy="20" r="20" fill="#00ACED"/>
<path d="M33.6162 11.5412C32.5987 11.9914 31.5197 12.2871 30.4148 12.4186C31.5789 11.7214 32.4499 10.6249 32.8655 9.33324C31.7722 9.9839 30.5735 10.4399 29.3255 10.6866C28.4863 9.78867 27.374 9.19319 26.1614 8.99268C24.9489 8.79218 23.7041 8.99789 22.6205 9.57784C21.537 10.1578 20.6753 11.0795 20.1697 12.1996C19.664 13.3198 19.5425 14.5756 19.8242 15.7719C17.6067 15.661 15.4375 15.0849 13.4572 14.0811C11.4769 13.0772 9.72982 11.6681 8.3295 9.94524C7.83389 10.7965 7.57344 11.7642 7.57483 12.7492C7.57483 14.6826 8.56017 16.3906 10.0548 17.3906C9.16952 17.3626 8.3037 17.1236 7.5295 16.6932V16.7612C7.52946 18.0491 7.97488 19.2973 8.79021 20.2941C9.60554 21.291 10.7406 21.9752 12.0028 22.2306C11.181 22.4535 10.3192 22.4863 9.48283 22.3266C9.83873 23.4351 10.5325 24.4045 11.4668 25.0991C12.4012 25.7937 13.5294 26.1786 14.6935 26.1999C13.5366 27.1085 12.212 27.7801 10.7954 28.1764C9.37874 28.5727 7.89788 28.6858 6.4375 28.5092C8.98646 30.1484 11.9536 31.0187 14.9842 31.0159C25.2428 31.0159 30.8508 22.5186 30.8508 15.1492C30.8508 14.9092 30.8455 14.6666 30.8348 14.4279C31.926 13.639 32.8679 12.6607 33.6162 11.5412Z" fill="white"/>
</svg>
