<svg width="1812" height="380" viewBox="0 0 1812 380" fill="none" xmlns="http://www.w3.org/2000/svg">
<g clip-path="url(#clip0_577_130)">
<path d="M773.746 925.551C773.746 925.551 537.42 784.02 590.668 622.248C644.178 460.992 723.199 350.196 978.713 405.47C1239.79 461.938 1347.83 600.923 1443.35 554.45C1533.1 510.723 1558.3 586.52 1557.77 591.815" stroke="#FEDA67" stroke-miterlimit="10"/>
<path d="M744.852 932.185C744.852 932.185 487.442 779.301 547.671 604.753C608.142 430.666 695.938 312.058 973.73 375.802C1256.49 440.678 1366.21 586.285 1466.85 532.075C1563.04 480.256 1589.92 563.138 1589.44 567.948" stroke="#FEDA67" stroke-miterlimit="10"/>
<path d="M716.088 938.833C716.088 938.833 437.502 774.586 504.728 587.237C572.161 400.319 668.743 273.899 968.8 346.125C1273.26 419.399 1384.49 571.702 1490.38 509.702C1592.84 449.708 1621.53 539.753 1621.1 544.078" stroke="#FEDA67" stroke-miterlimit="10"/>
<path d="M687.185 945.467C687.185 945.467 387.578 769.873 461.787 569.734C536.204 370.014 641.565 235.743 963.873 316.449C1290.04 398.121 1402.67 557.148 1513.92 487.33C1622.55 419.151 1653.1 516.418 1652.72 520.205" stroke="#FEDA67" stroke-miterlimit="10"/>
<path d="M658.361 952.108C658.361 952.108 337.657 765.16 418.862 552.233C500.205 339.638 614.404 197.574 958.962 286.774C1306.85 376.846 1420.78 542.626 1537.48 464.96C1652.21 388.588 1684.8 492.976 1684.46 496.344" stroke="#FEDA67" stroke-miterlimit="10"/>
<path d="M629.521 958.748C629.521 958.748 287.732 760.433 375.919 534.73C464.236 309.305 587.226 159.405 954.019 257.11C1323.65 355.557 1438.78 528.134 1561 442.547C1681.78 358.017 1716.41 469.566 1716.12 472.449" stroke="#FEDA67" stroke-miterlimit="10"/>
<path d="M600.692 965.39C600.692 965.39 237.806 755.72 332.976 517.228C428.255 278.958 560.072 121.238 949.09 227.434C1340.44 334.28 1456.73 513.677 1584.58 420.206C1711.34 327.498 1748.06 446.253 1747.83 448.612" stroke="#FEDA67" stroke-miterlimit="10"/>
<path d="M571.854 972.03C571.854 972.03 187.883 751.007 290.041 499.673C392.199 248.339 532.916 83.0043 944.169 197.706C1357.27 312.928 1474.65 499.19 1608.08 397.778C1740.81 296.916 1779.66 422.762 1779.47 424.636" stroke="#FEDA67" stroke-miterlimit="10"/>
<path d="M543.026 978.671C543.026 978.671 137.957 746.293 247.094 482.209C356.231 218.125 505.76 44.8624 939.234 168.081C1374.07 291.679 1492.51 484.815 1631.62 375.445C1770.26 266.424 1811.26 399.416 1811.12 400.858" stroke="#FEDA67" stroke-miterlimit="10"/>
<path d="M514.186 985.311C514.186 985.311 88.0267 741.633 204.151 464.72C320.275 187.807 478.787 6.09168 934.303 138.445C1391.06 269.813 1510.35 470.452 1655.11 353.082C1799.67 235.929 1842.86 376.031 1842.76 377.001" stroke="#FEDA67" stroke-miterlimit="10"/>
<path d="M485.347 991.938C485.347 991.938 38.1105 736.828 161.208 447.217C284.306 157.607 451.567 -31.7909 929.376 108.756C1407.76 248.818 1528.15 456.085 1678.7 330.715C1829.24 205.344 1874.54 352.654 1874.49 353.139" stroke="#FEDA67" stroke-miterlimit="10"/>
<path d="M456.521 998.58C456.521 998.58 -11.8212 732.193 118.267 429.714C248.356 127.236 424.335 -69.6752 924.449 79.0795C1424.56 227.834 1545.94 441.743 1702.23 308.342C1858.52 174.941 1906.16 329.271 1906.16 329.271" stroke="#FEDA67" stroke-miterlimit="10"/>
</g>
<defs>
<clipPath id="clip0_577_130">
<rect width="1812" height="380" fill="white"/>
</clipPath>
</defs>
</svg>
