<svg width="209" height="106" viewBox="0 0 209 106" fill="none" xmlns="http://www.w3.org/2000/svg">
<g filter="url(#filter0_d_525_847)">
<rect x="23" y="23" width="155" height="51.4523" rx="24" fill="white"/>
</g>
<circle cx="53.87" cy="48.7262" r="20.5809" fill="#FDC40C"/>
<rect x="84.7422" y="41.0083" width="82.9668" height="3.85892" rx="1.92946" fill="#E12838"/>
<rect x="84.7422" y="52.585" width="67.5311" height="3.85892" rx="1.92946" fill="#FDC40C"/>
<g clip-path="url(#clip0_525_847)">
<path d="M44.4788 43.2918C47.3548 38.3095 53.7256 36.6043 58.7079 39.4793C60.6819 40.6188 62.2278 42.3741 63.1087 44.4763C63.9896 46.5784 64.1569 48.9114 63.585 51.1178C63.359 51.9845 62.3121 52.2365 61.7017 51.6709L61.6142 51.5803L59.2683 48.8855C58.5548 48.0657 59.2767 46.8313 60.3069 47.0001L60.4215 47.024L61.7569 47.373C61.5003 45.4976 60.6129 43.7655 59.2407 42.4617C57.8686 41.1578 56.0934 40.36 54.2074 40.1994C52.3214 40.0388 50.4369 40.5251 48.8641 41.5782C47.2913 42.6313 46.1238 44.1885 45.5539 45.9935C44.9839 47.7985 45.0455 49.7437 45.7284 51.5091C46.4112 53.2744 47.6748 54.7547 49.311 55.7063C50.9472 56.6579 52.8587 57.0241 54.7308 56.7447C56.6029 56.4652 58.324 55.5568 59.6111 54.1688C59.7033 54.0662 59.8151 53.9829 59.9399 53.9238C60.0646 53.8647 60.1999 53.831 60.3378 53.8247C60.4757 53.8183 60.6135 53.8394 60.7431 53.8868C60.8728 53.9342 60.9917 54.0068 61.0931 54.1006C61.1944 54.1943 61.2761 54.3073 61.3334 54.4328C61.3907 54.5584 61.4225 54.6942 61.4269 54.8321C61.4312 54.9701 61.4082 55.1076 61.359 55.2365C61.3097 55.3655 61.2354 55.4834 61.1402 55.5834C57.909 59.074 52.5861 60.0001 48.2913 57.5209C43.309 54.6459 41.6038 48.274 44.4788 43.2918ZM53.4996 42.2501C53.7547 42.2501 54.001 42.3438 54.1917 42.5133C54.3823 42.6829 54.5041 42.9165 54.534 43.1699L54.5413 43.2918V48.0688L57.3611 50.8886C57.5479 51.0761 57.6563 51.3276 57.6644 51.5922C57.6725 51.8567 57.5796 52.1144 57.4045 52.3129C57.2295 52.5114 56.9855 52.6358 56.722 52.6609C56.4586 52.686 56.1954 52.6099 55.9861 52.448L55.8881 52.3615L52.7631 49.2365C52.6012 49.0745 52.4973 48.8636 52.4673 48.6365L52.4579 48.5001V43.2918C52.4579 43.0155 52.5677 42.7505 52.763 42.5552C52.9584 42.3598 53.2233 42.2501 53.4996 42.2501Z" fill="white"/>
</g>
<defs>
<filter id="filter0_d_525_847" x="0" y="0" width="209" height="105.452" filterUnits="userSpaceOnUse" color-interpolation-filters="sRGB">
<feFlood flood-opacity="0" result="BackgroundImageFix"/>
<feColorMatrix in="SourceAlpha" type="matrix" values="0 0 0 0 0 0 0 0 0 0 0 0 0 0 0 0 0 0 127 0" result="hardAlpha"/>
<feMorphology radius="6" operator="dilate" in="SourceAlpha" result="effect1_dropShadow_525_847"/>
<feOffset dx="4" dy="4"/>
<feGaussianBlur stdDeviation="10.5"/>
<feComposite in2="hardAlpha" operator="out"/>
<feColorMatrix type="matrix" values="0 0 0 0 0 0 0 0 0 0 0 0 0 0 0 0 0 0 0.09 0"/>
<feBlend mode="normal" in2="BackgroundImageFix" result="effect1_dropShadow_525_847"/>
<feBlend mode="normal" in="SourceGraphic" in2="effect1_dropShadow_525_847" result="shape"/>
</filter>
<clipPath id="clip0_525_847">
<rect width="25" height="25" fill="white" transform="translate(41 36)"/>
</clipPath>
</defs>
</svg>
