<svg width="128" height="128" viewBox="0 0 128 128" fill="none" xmlns="http://www.w3.org/2000/svg">
<circle cx="64" cy="64" r="64" fill="#E12838"/>
<path d="M39 76.5V74H34V76.5C34 81.1413 35.8437 85.5925 39.1256 88.8744C42.4075 92.1563 46.8587 94 51.5 94H59V89H51.5C48.1848 89 45.0054 87.683 42.6612 85.3388C40.317 82.9946 39 79.8152 39 76.5ZM84 51.5V54H89V51.5C89 46.8587 87.1563 42.4075 83.8744 39.1256C80.5925 35.8437 76.1413 34 71.5 34H64V39H71.5C73.1415 39 74.767 39.3233 76.2835 39.9515C77.8001 40.5797 79.1781 41.5004 80.3388 42.6612C81.4996 43.8219 82.4203 45.1999 83.0485 46.7165C83.6767 48.233 84 49.8585 84 51.5ZM51.5 51.5H36.5C34.5109 51.5 32.6032 52.2902 31.1967 53.6967C29.7902 55.1032 29 57.0109 29 59V64H34V59C34 58.337 34.2634 57.7011 34.7322 57.2322C35.2011 56.7634 35.837 56.5 36.5 56.5H51.5C52.163 56.5 52.7989 56.7634 53.2678 57.2322C53.7366 57.7011 54 58.337 54 59V64H59V59C59 57.0109 58.2098 55.1032 56.8033 53.6967C55.3968 52.2902 53.4891 51.5 51.5 51.5ZM44 49C45.9778 49 47.9112 48.4135 49.5557 47.3147C51.2002 46.2159 52.4819 44.6541 53.2388 42.8268C53.9957 40.9996 54.1937 38.9889 53.8079 37.0491C53.422 35.1093 52.4696 33.3275 51.0711 31.9289C49.6725 30.5304 47.8907 29.578 45.9509 29.1922C44.0111 28.8063 42.0004 29.0043 40.1732 29.7612C38.3459 30.5181 36.7841 31.7998 35.6853 33.4443C34.5865 35.0888 34 37.0222 34 39C34 41.6522 35.0536 44.1957 36.9289 46.0711C38.8043 47.9464 41.3478 49 44 49ZM44 34C44.9889 34 45.9556 34.2932 46.7779 34.8427C47.6001 35.3921 48.241 36.173 48.6194 37.0866C48.9978 38.0002 49.0969 39.0056 48.9039 39.9755C48.711 40.9454 48.2348 41.8363 47.5355 42.5355C46.8363 43.2348 45.9454 43.711 44.9755 43.9039C44.0055 44.0969 43.0002 43.9978 42.0866 43.6194C41.173 43.241 40.3921 42.6001 39.8427 41.7779C39.2932 40.9556 39 39.9889 39 39C39 37.6739 39.5268 36.4022 40.4645 35.4645C41.4021 34.5268 42.6739 34 44 34ZM91.5 86.5H76.5C74.5109 86.5 72.6032 87.2902 71.1967 88.6967C69.7902 90.1032 69 92.0109 69 94V99H74V94C74 93.337 74.2634 92.7011 74.7322 92.2322C75.2011 91.7634 75.837 91.5 76.5 91.5H91.5C92.163 91.5 92.7989 91.7634 93.2678 92.2322C93.7366 92.7011 94 93.337 94 94V99H99V94C99 92.0109 98.2098 90.1032 96.8033 88.6967C95.3968 87.2902 93.4891 86.5 91.5 86.5ZM74 74C74 75.9778 74.5865 77.9112 75.6853 79.5557C76.7841 81.2002 78.3459 82.4819 80.1732 83.2388C82.0004 83.9957 84.0111 84.1937 85.9509 83.8079C87.8907 83.422 89.6725 82.4696 91.0711 81.0711C92.4696 79.6725 93.422 77.8907 93.8079 75.9509C94.1937 74.0111 93.9957 72.0004 93.2388 70.1732C92.4819 68.3459 91.2002 66.7841 89.5557 65.6853C87.9112 64.5865 85.9778 64 84 64C81.3478 64 78.8043 65.0536 76.9289 66.9289C75.0536 68.8043 74 71.3478 74 74ZM89 74C89 74.9889 88.7068 75.9556 88.1573 76.7779C87.6079 77.6001 86.827 78.241 85.9134 78.6194C84.9998 78.9978 83.9945 79.0969 83.0245 78.9039C82.0546 78.711 81.1637 78.2348 80.4645 77.5355C79.7652 76.8363 79.289 75.9454 79.0961 74.9755C78.9031 74.0056 79.0022 73.0002 79.3806 72.0866C79.759 71.173 80.3999 70.3921 81.2221 69.8427C82.0444 69.2933 83.0111 69 84 69C85.3261 69 86.5979 69.5268 87.5355 70.4645C88.4732 71.4022 89 72.6739 89 74Z" fill="white"/>
</svg>
