<svg width="32" height="32" viewBox="0 0 32 32" fill="none" xmlns="http://www.w3.org/2000/svg">
<path d="M11.9381 10.4698C11.9379 10.8594 11.7829 11.233 11.5073 11.5083C11.2317 11.7837 10.8579 11.9383 10.4683 11.9381C10.0787 11.9379 9.70512 11.7829 9.42975 11.5073C9.15439 11.2317 8.99981 10.8579 9 10.4683C9.00019 10.0787 9.15516 9.70512 9.43079 9.42975C9.70643 9.15439 10.0802 8.99981 10.4698 9C10.8594 9.00019 11.233 9.15516 11.5083 9.43079C11.7837 9.70643 11.9383 10.0802 11.9381 10.4698ZM11.9822 13.0259H9.04407V22.2221H11.9822V13.0259ZM16.6243 13.0259H13.7009V22.2221H16.595V17.3963C16.595 14.708 20.0986 14.4582 20.0986 17.3963V22.2221H23V16.3974C23 11.8654 17.8143 12.0343 16.595 14.2599L16.6243 13.0259Z" fill="white"/>
<rect x="5" y="5" width="22" height="22" rx="3" stroke="white" stroke-width="2"/>
</svg>
