<svg width="40" height="40" viewBox="0 0 40 40" fill="none" xmlns="http://www.w3.org/2000/svg">
<g clip-path="url(#clip0_525_113)">
<path d="M8.79 17.5C10.5206 17.5 12.2123 18.0132 13.6512 18.9746C15.0902 19.9361 16.2117 21.3027 16.8739 22.9015C17.5362 24.5004 17.7095 26.2597 17.3719 27.957C17.0343 29.6544 16.2009 31.2135 14.9772 32.4372C13.7535 33.6609 12.1944 34.4943 10.497 34.8319C8.79971 35.1695 7.04037 34.9962 5.44152 34.3339C3.84267 33.6717 2.4761 32.5502 1.51464 31.1112C0.553179 29.6723 0.04 27.9806 0.04 26.25L0 25C0 20.3587 1.84374 15.9075 5.12563 12.6256C8.40752 9.34374 12.8587 7.5 17.5 7.5V12.5C15.8578 12.4956 14.2309 12.8168 12.7136 13.445C11.1962 14.0732 9.81849 14.996 8.66 16.16C8.20974 16.6094 7.79437 17.0925 7.4175 17.605C7.865 17.535 8.3225 17.4975 8.7875 17.4975L8.79 17.5ZM31.29 17.5C33.0206 17.5 34.7123 18.0132 36.1512 18.9746C37.5902 19.9361 38.7117 21.3027 39.3739 22.9015C40.0362 24.5004 40.2095 26.2597 39.8719 27.957C39.5343 29.6544 38.7009 31.2135 37.4772 32.4372C36.2535 33.6609 34.6944 34.4943 32.997 34.8319C31.2997 35.1695 29.5404 34.9962 27.9415 34.3339C26.3427 33.6717 24.9761 32.5502 24.0146 31.1112C23.0532 29.6723 22.54 27.9806 22.54 26.25L22.5 25C22.5 20.3587 24.3437 15.9075 27.6256 12.6256C30.9075 9.34374 35.3587 7.5 40 7.5V12.5C38.3578 12.4956 36.7309 12.8168 35.2136 13.445C33.6962 14.0732 32.3185 14.996 31.16 16.16C30.7097 16.6094 30.2944 17.0925 29.9175 17.605C30.365 17.535 30.8225 17.5 31.29 17.5Z" fill="#D6D6D6"/>
</g>
<defs>
<clipPath id="clip0_525_113">
<rect width="40" height="40" fill="white"/>
</clipPath>
</defs>
</svg>
