<svg width="40" height="40" viewBox="0 0 40 40" fill="none" xmlns="http://www.w3.org/2000/svg">
<circle cx="20" cy="20" r="20" fill="#25D366"/>
<path d="M29.3991 10.5466C28.1767 9.31182 26.7207 8.33281 25.1159 7.66665C23.5112 7.0005 21.7899 6.66053 20.0524 6.66658C12.7724 6.66658 6.83909 12.5999 6.83909 19.8799C6.83909 22.2132 7.45242 24.4799 8.59909 26.4799L6.73242 33.3333L13.7324 31.4933C15.6658 32.5466 17.8391 33.1066 20.0524 33.1066C27.3324 33.1066 33.2658 27.1733 33.2658 19.8932C33.2658 16.3599 31.8924 13.0399 29.3991 10.5466ZM20.0524 30.8666C18.0791 30.8666 16.1458 30.3333 14.4524 29.3333L14.0524 29.0932L9.89242 30.1866L10.9991 26.1333L10.7324 25.7199C9.63608 23.9692 9.05394 21.9456 9.05242 19.8799C9.05242 13.8266 13.9858 8.89325 20.0391 8.89325C22.9724 8.89325 25.7324 10.0399 27.7991 12.1199C28.8224 13.1385 29.6334 14.3501 30.1849 15.6845C30.7365 17.0188 31.0178 18.4494 31.0124 19.8932C31.0391 25.9466 26.1058 30.8666 20.0524 30.8666ZM26.0791 22.6532C25.7458 22.4932 24.1191 21.6933 23.8258 21.5733C23.5191 21.4666 23.3058 21.4133 23.0791 21.7333C22.8524 22.0666 22.2258 22.8133 22.0391 23.0266C21.8524 23.2533 21.6524 23.2799 21.3191 23.1066C20.9858 22.9466 19.9191 22.5866 18.6658 21.4666C17.6791 20.5866 17.0258 19.5066 16.8258 19.1732C16.6391 18.8399 16.7991 18.6666 16.9724 18.4932C17.1191 18.3466 17.3058 18.1066 17.4658 17.9199C17.6258 17.7332 17.6924 17.5866 17.7991 17.3732C17.9058 17.1466 17.8524 16.9599 17.7724 16.7999C17.6924 16.6399 17.0258 15.0133 16.7591 14.3466C16.4924 13.7066 16.2124 13.7866 16.0124 13.7733H15.3724C15.1458 13.7733 14.7991 13.8533 14.4924 14.1866C14.1991 14.5199 13.3458 15.3199 13.3458 16.9466C13.3458 18.5733 14.5324 20.1466 14.6924 20.3599C14.8524 20.5866 17.0258 23.9199 20.3324 25.3466C21.1191 25.6933 21.7324 25.8933 22.2124 26.0399C22.9991 26.2933 23.7191 26.2532 24.2924 26.1732C24.9324 26.0799 26.2524 25.3732 26.5191 24.5999C26.7991 23.8266 26.7991 23.1733 26.7058 23.0266C26.6124 22.8799 26.4124 22.8132 26.0791 22.6532Z" fill="white"/>
</svg>
