<svg width="32" height="32" viewBox="0 0 32 32" fill="none" xmlns="http://www.w3.org/2000/svg">
<path d="M24.5025 7.50962C23.3968 6.39275 22.0798 5.50721 20.6283 4.90466C19.1768 4.3021 17.6198 3.9946 16.0482 4.00007C9.46332 4.00007 4.09648 9.36691 4.09648 15.9518C4.09648 18.0624 4.65126 20.1126 5.68844 21.9217L4 28.1207L10.3317 26.4564C12.0804 27.4091 14.0462 27.9156 16.0482 27.9156C22.6332 27.9156 28 22.5488 28 15.9639C28 12.7679 26.7578 9.7649 24.5025 7.50962ZM16.0482 25.8895C14.2633 25.8895 12.5146 25.4071 10.9829 24.5026L10.6211 24.2855L6.85829 25.2744L7.8593 21.6081L7.61809 21.2342C6.62643 19.6507 6.09987 17.8203 6.09849 15.9518C6.09849 10.4765 10.5608 6.01414 16.0362 6.01414C18.6894 6.01414 21.1859 7.05133 23.0553 8.93274C23.9809 9.8541 24.7144 10.95 25.2133 12.157C25.7123 13.3639 25.9667 14.6579 25.9618 15.9639C25.9859 21.4393 21.5236 25.8895 16.0482 25.8895ZM21.4995 18.4604C21.198 18.3156 19.7266 17.592 19.4613 17.4835C19.1839 17.387 18.991 17.3388 18.7859 17.6282C18.5809 17.9297 18.0141 18.6051 17.8452 18.7981C17.6764 19.0031 17.4955 19.0272 17.194 18.8704C16.8925 18.7257 15.9276 18.4001 14.794 17.387C13.9015 16.591 13.3106 15.6141 13.1296 15.3126C12.9608 15.0111 13.1055 14.8543 13.2623 14.6976C13.395 14.5649 13.5638 14.3478 13.7085 14.179C13.8533 14.0101 13.9136 13.8775 14.01 13.6845C14.1065 13.4795 14.0583 13.3106 13.9859 13.1659C13.9136 13.0212 13.3106 11.5498 13.0693 10.9468C12.8281 10.3679 12.5749 10.4403 12.394 10.4282H11.8151C11.61 10.4282 11.2965 10.5006 11.0191 10.8021C10.7538 11.1036 9.98191 11.8272 9.98191 13.2986C9.98191 14.7699 11.0553 16.193 11.2 16.386C11.3447 16.591 13.3106 19.6061 16.3015 20.8966C17.0131 21.2101 17.5678 21.391 18.002 21.5237C18.7136 21.7528 19.3648 21.7167 19.8834 21.6443C20.4623 21.5599 21.6563 20.9207 21.8975 20.2212C22.1507 19.5217 22.1508 18.9307 22.0663 18.7981C21.9819 18.6654 21.801 18.6051 21.4995 18.4604Z" fill="white"/>
</svg>
