<svg width="32" height="32" viewBox="0 0 32 32" fill="none" xmlns="http://www.w3.org/2000/svg">
<path d="M18.6667 16.0002L14 18.6668V13.3335L18.6667 16.0002Z" fill="white" stroke="white" stroke-width="2" stroke-linecap="round" stroke-linejoin="round"/>
<path d="M2.66602 16.9428V15.0561C2.66602 11.1961 2.66602 9.26545 3.87268 8.02411C5.08068 6.78145 6.98202 6.72811 10.7833 6.62011C12.5833 6.56945 14.4233 6.53345 15.9993 6.53345C17.574 6.53345 19.414 6.56945 21.2153 6.62011C25.0167 6.72811 26.918 6.78145 28.1247 8.02411C29.3327 9.26545 29.3327 11.1974 29.3327 15.0561V16.9428C29.3327 20.8041 29.3327 22.7334 28.126 23.9761C26.918 25.2174 25.018 25.2721 21.2153 25.3788C19.4153 25.4308 17.5753 25.4668 15.9993 25.4668C14.2604 25.4616 12.5215 25.4322 10.7833 25.3788C6.98202 25.2721 5.08068 25.2188 3.87268 23.9761C2.66602 22.7334 2.66602 20.8028 2.66602 16.9441V16.9428Z" stroke="white" stroke-width="2"/>
</svg>
